<?xml version="1.0" standalone="no"?>
<!DOCTYPE svg PUBLIC "-//W3C//DTD SVG 20010904//EN"
 "http://www.w3.org/TR/2001/REC-SVG-20010904/DTD/svg10.dtd">
<svg version="1.0" xmlns="http://www.w3.org/2000/svg"
 width="360.000000pt" height="84.000000pt" viewBox="0 0 360.000000 84.000000"
 preserveAspectRatio="xMidYMid meet">

<g transform="translate(0.000000,84.000000) scale(0.100000,-0.100000)"
fill="#000000" stroke="none">
<path d="M189 676 c-204 -55 -252 -330 -78 -456 22 -16 64 -34 93 -41 106 -23
262 25 349 109 l37 36 0 -72 0 -72 65 0 65 0 0 250 0 250 -65 0 -65 0 0 -72 0
-72 -37 36 c-56 52 -122 87 -199 103 -82 17 -104 18 -165 1z m207 -120 c52
-24 124 -97 124 -126 0 -29 -72 -102 -124 -126 -69 -32 -150 -33 -196 -1 -91
62 -91 192 0 255 46 31 127 30 196 -2z"/>
<path d="M1170 679 c-25 -5 -75 -24 -112 -43 l-68 -34 0 39 0 39 -65 0 -65 0
0 -250 0 -250 65 0 65 0 0 124 c0 116 2 125 26 161 46 68 119 114 182 115 24
0 32 4 32 18 0 9 3 34 6 55 7 41 9 40 -66 26z"/>
<path d="M2430 680 c-25 -6 -73 -23 -106 -40 -34 -16 -64 -30 -68 -30 -3 0 -6
16 -6 35 l0 35 -65 0 -65 0 0 -250 0 -250 65 0 65 0 0 124 c0 115 2 126 25
160 58 85 129 121 225 114 52 -4 65 -9 95 -38 46 -45 55 -81 55 -232 l0 -128
60 0 60 0 0 158 c0 175 -9 210 -70 270 -66 66 -167 93 -270 72z"/>
<path d="M3069 683 c-51 -8 -132 -66 -164 -117 -27 -45 -30 -57 -30 -136 0
-79 3 -91 30 -136 37 -59 114 -109 184 -119 99 -14 244 35 324 109 l37 35 0
-70 0 -69 70 0 70 0 0 250 0 250 -70 0 -70 0 0 -69 0 -70 -37 35 c-88 81 -229
125 -344 107z m165 -115 c52 -16 146 -104 146 -138 0 -34 -94 -122 -146 -138
-48 -14 -113 -16 -146 -3 -67 25 -110 112 -90 180 13 40 53 88 87 102 30 12
103 11 149 -3z"/>
<path d="M1330 542 c0 -177 13 -226 80 -293 81 -81 188 -97 327 -49 29 10 66
28 83 40 l30 21 0 -40 0 -41 65 0 65 0 0 250 0 250 -65 0 -65 0 0 -125 c0
-136 -6 -159 -57 -207 -71 -68 -198 -89 -264 -45 -59 39 -69 73 -69 235 l0
142 -65 0 -65 0 0 -138z"/>
</g>
</svg>
