<?xml version="1.0" encoding="UTF-8" standalone="no"?>
<svg
   xmlns:dc="http://purl.org/dc/elements/1.1/"
   xmlns:cc="http://creativecommons.org/ns#"
   xmlns:rdf="http://www.w3.org/1999/02/22-rdf-syntax-ns#"
   xmlns:svg="http://www.w3.org/2000/svg"
   xmlns="http://www.w3.org/2000/svg"
   xmlns:sodipodi="http://sodipodi.sourceforge.net/DTD/sodipodi-0.dtd"
   xmlns:inkscape="http://www.inkscape.org/namespaces/inkscape"
   width="512"
   height="512"
   viewBox="0 0 135.46666 135.46667"
   version="1.1"
   id="svg845"
   inkscape:version="1.0.1 (3bc2e813f5, 2020-09-07)"
   sodipodi:docname="favicon.svg">
  <defs
     id="defs839" />
  <sodipodi:namedview
     id="base"
     pagecolor="#ffffff"
     bordercolor="#666666"
     borderopacity="1.0"
     inkscape:pageopacity="0.0"
     inkscape:pageshadow="2"
     inkscape:zoom="1.5457555"
     inkscape:cx="267.48886"
     inkscape:cy="353.1123"
     inkscape:document-units="mm"
     inkscape:current-layer="g843"
     inkscape:document-rotation="0"
     showgrid="false"
     units="px"
     inkscape:window-width="3440"
     inkscape:window-height="1411"
     inkscape:window-x="-9"
     inkscape:window-y="-9"
     inkscape:window-maximized="1" />
  <metadata
     id="metadata842">
    <rdf:RDF>
      <cc:Work
         rdf:about="">
        <dc:format>image/svg+xml</dc:format>
        <dc:type
           rdf:resource="http://purl.org/dc/dcmitype/StillImage" />
        <dc:title></dc:title>
      </cc:Work>
    </rdf:RDF>
  </metadata>
  <g
     inkscape:label="Layer 1"
     inkscape:groupmode="layer"
     id="layer1">
    <g
       transform="matrix(0.01026263,0,0,-0.01026263,-0.15393945,135.63288)"
       fill="#000000"
       stroke="none"
       id="g6"
       style="fill:#096fb4;fill-opacity:1">
      <g
         id="g843">
        <path
           d="M 2190,13209 C 1500,13166 869,12821 458,12260 237,11959 92,11600 33,11214 16,11101 15,10877 15,6610 15,2349 16,2119 33,2010 74,1744 135,1549 250,1315 603,592 1270,120 2080,18 2166,7 3004,5 6620,5 c 4227,0 4441,1 4568,18 630,86 1191,413 1567,913 227,300 376,655 442,1049 17,106 18,289 18,4625 0,4317 -1,4520 -18,4625 -43,257 -101,443 -211,670 -200,413 -511,751 -907,986 -264,156 -522,248 -846,301 l -138,23 -4390,1 c -2414,1 -4446,-2 -4515,-7 z M 5640,9890 c 859,-54 1670,-296 2401,-716 466,-267 929,-636 1284,-1024 l 130,-142 3,891 2,891 h 870 870 V 6610 3430 h -870 -870 v 893 892 l -71,-80 c -188,-211 -486,-487 -738,-683 -138,-108 -440,-310 -610,-407 -825,-472 -1776,-725 -2726,-725 -1428,0 -2689,923 -3130,2290 -62,192 -104,389 -137,640 -7,56 -13,205 -13,360 0,284 12,414 61,655 271,1338 1359,2382 2704,2594 254,41 524,50 840,31 z"
           id="path2"
           style="fill:#0e6cb1;fill-opacity:1" />
        <path
           d="m 5359,8505 c -346,-47 -683,-193 -951,-412 -101,-82 -274,-267 -350,-374 -77,-108 -182,-305 -231,-435 -81,-212 -119,-427 -119,-674 0,-511 182,-961 537,-1329 304,-315 689,-509 1128,-567 147,-20 486,-14 667,11 725,99 1377,421 1885,930 261,261 467,546 621,858 l 49,97 -49,98 c -105,212 -263,455 -419,642 -39,47 -132,146 -206,220 -545,542 -1250,870 -2021,940 -153,13 -422,11 -541,-5 z"
           id="path4"
           style="fill:#0e6cb1;fill-opacity:1" />
      </g>
    </g>
  </g>
</svg>
