<?xml version="1.0" encoding="UTF-8" standalone="no"?>
<svg
   xmlns:dc="http://purl.org/dc/elements/1.1/"
   xmlns:cc="http://creativecommons.org/ns#"
   xmlns:rdf="http://www.w3.org/1999/02/22-rdf-syntax-ns#"
   xmlns:svg="http://www.w3.org/2000/svg"
   xmlns="http://www.w3.org/2000/svg"
   xmlns:sodipodi="http://sodipodi.sourceforge.net/DTD/sodipodi-0.dtd"
   xmlns:inkscape="http://www.inkscape.org/namespaces/inkscape"
   version="1.0"
   width="360.000000pt"
   height="84.000000pt"
   viewBox="0 0 360.000000 84.000000"
   preserveAspectRatio="xMidYMid meet"
   id="svg14"
   sodipodi:docname="logo.svg"
   inkscape:version="1.0.1 (3bc2e813f5, 2020-09-07)">
  <metadata
     id="metadata20">
    <rdf:RDF>
      <cc:Work
         rdf:about="">
        <dc:format>image/svg+xml</dc:format>
        <dc:type
           rdf:resource="http://purl.org/dc/dcmitype/StillImage" />
        <dc:title></dc:title>
      </cc:Work>
    </rdf:RDF>
  </metadata>
  <defs
     id="defs18" />
  <sodipodi:namedview
     pagecolor="#ffffff"
     bordercolor="#666666"
     borderopacity="1"
     objecttolerance="10"
     gridtolerance="10"
     guidetolerance="10"
     inkscape:pageopacity="0"
     inkscape:pageshadow="2"
     inkscape:window-width="3440"
     inkscape:window-height="1411"
     id="namedview16"
     showgrid="false"
     inkscape:zoom="0.7343489"
     inkscape:cx="1110.8958"
     inkscape:cy="181.25851"
     inkscape:window-x="-9"
     inkscape:window-y="-9"
     inkscape:window-maximized="1"
     inkscape:current-layer="svg14" />
  <g
     transform="matrix(0.1,0,0,-0.1,0,84)"
     fill="#000000"
     stroke="none"
     id="g12"
     style="fill:#0e6cb1;fill-opacity:1">
    <path
       d="M 189,676 C -15,621 -63,346 111,220 c 22,-16 64,-34 93,-41 106,-23 262,25 349,109 l 37,36 v -72 -72 h 65 65 v 250 250 h -65 -65 v -72 -72 l -37,36 c -56,52 -122,87 -199,103 -82,17 -104,18 -165,1 z M 396,556 c 52,-24 124,-97 124,-126 0,-29 -72,-102 -124,-126 -69,-32 -150,-33 -196,-1 -91,62 -91,192 0,255 46,31 127,30 196,-2 z"
       id="path2"
       style="fill:#0e6cb1;fill-opacity:1" />
    <path
       d="m 1170,679 c -25,-5 -75,-24 -112,-43 l -68,-34 v 39 39 H 925 860 V 430 180 h 65 65 v 124 c 0,116 2,125 26,161 46,68 119,114 182,115 24,0 32,4 32,18 0,9 3,34 6,55 7,41 9,40 -66,26 z"
       id="path4"
       style="fill:#0e6cb1;fill-opacity:1" />
    <path
       d="m 2430,680 c -25,-6 -73,-23 -106,-40 -34,-16 -64,-30 -68,-30 -3,0 -6,16 -6,35 v 35 h -65 -65 V 430 180 h 65 65 v 124 c 0,115 2,126 25,160 58,85 129,121 225,114 52,-4 65,-9 95,-38 46,-45 55,-81 55,-232 V 180 h 60 60 v 158 c 0,175 -9,210 -70,270 -66,66 -167,93 -270,72 z"
       id="path6"
       style="fill:#0e6cb1;fill-opacity:1" />
    <path
       d="m 3069,683 c -51,-8 -132,-66 -164,-117 -27,-45 -30,-57 -30,-136 0,-79 3,-91 30,-136 37,-59 114,-109 184,-119 99,-14 244,35 324,109 l 37,35 v -70 -69 h 70 70 v 250 250 h -70 -70 v -69 -70 l -37,35 c -88,81 -229,125 -344,107 z m 165,-115 c 52,-16 146,-104 146,-138 0,-34 -94,-122 -146,-138 -48,-14 -113,-16 -146,-3 -67,25 -110,112 -90,180 13,40 53,88 87,102 30,12 103,11 149,-3 z"
       id="path8"
       style="fill:#0e6cb1;fill-opacity:1" />
    <path
       d="m 1330,542 c 0,-177 13,-226 80,-293 81,-81 188,-97 327,-49 29,10 66,28 83,40 l 30,21 v -40 -41 h 65 65 v 250 250 h -65 -65 V 555 c 0,-136 -6,-159 -57,-207 -71,-68 -198,-89 -264,-45 -59,39 -69,73 -69,235 v 142 h -65 -65 z"
       id="path10"
       style="fill:#0e6cb1;fill-opacity:1" />
  </g>
</svg>
