<?xml version="1.0" standalone="no"?>
<!DOCTYPE svg PUBLIC "-//W3C//DTD SVG 20010904//EN"
 "http://www.w3.org/TR/2001/REC-SVG-20010904/DTD/svg10.dtd">
<svg version="1.0" xmlns="http://www.w3.org/2000/svg"
 width="700.000000pt" height="700.000000pt" viewBox="0 0 700.000000 700.000000"
 preserveAspectRatio="xMidYMid meet">
<metadata>
Created by potrace 1.14, written by Peter Selinger 2001-2017
</metadata>
<g transform="translate(0.000000,700.000000) scale(0.100000,-0.100000)"
fill="#000000" stroke="none">
<path d="M1080 6989 c-25 -4 -61 -9 -80 -12 -70 -12 -209 -57 -286 -93 -146
-69 -292 -175 -394 -288 -19 -22 -40 -44 -45 -50 -71 -76 -174 -269 -219 -411
-57 -177 -54 -37 -52 -2660 2 -1331 6 -2438 10 -2460 47 -239 173 -480 339
-647 183 -185 373 -289 637 -348 82 -19 162 -19 2501 -20 2163 0 2425 2 2500
16 410 78 754 353 913 731 33 79 76 224 84 288 9 66 9 4866 0 4930 -12 89 -58
228 -109 334 -85 174 -189 308 -324 416 -27 22 -52 43 -55 46 -8 10 -135 86
-192 115 -74 37 -175 71 -298 99 l-105 24 -2390 -1 c-1314 -1 -2410 -5 -2435
-9z m2045 -1763 c17 -3 73 -12 125 -20 52 -8 106 -17 120 -20 14 -3 41 -9 60
-12 100 -18 371 -101 457 -140 17 -8 34 -14 38 -14 3 0 65 -28 138 -63 308
-148 562 -330 814 -584 68 -68 124 -123 126 -123 2 0 4 208 5 462 2 254 5 464
8 467 2 3 209 5 459 5 l455 1 0 -1687 0 -1688 -460 0 -460 0 0 471 0 471 -113
-113 c-62 -63 -139 -136 -171 -164 -33 -27 -64 -55 -70 -60 -139 -129 -471
-332 -706 -430 -222 -93 -519 -176 -715 -200 -22 -3 -51 -7 -65 -10 -102 -19
-423 -26 -550 -12 -582 62 -1107 430 -1369 961 -60 121 -115 274 -135 372 -3
11 -9 40 -15 65 -6 25 -14 72 -18 105 -10 75 -10 382 0 454 77 580 443 1088
967 1343 178 86 298 125 490 157 84 14 151 17 330 14 124 -1 239 -5 255 -8z"/>
<path d="M2845 4504 c-108 -21 -140 -29 -205 -51 -228 -76 -443 -258 -559
-475 -91 -168 -115 -271 -116 -478 0 -141 4 -178 24 -254 13 -50 27 -97 30
-105 54 -117 95 -188 142 -251 159 -211 377 -343 654 -396 63 -12 331 -5 425
11 367 63 678 218 930 464 154 151 261 294 344 459 42 83 45 67 -47 222 -204
342 -500 597 -859 739 -77 31 -218 72 -293 87 -22 4 -47 9 -55 10 -54 12 -103
15 -240 18 -85 2 -164 2 -175 0z"/>
</g>
</svg>
